<svg width="1440" height="5007" viewBox="0 0 1440 5007" fill="none" xmlns="http://www.w3.org/2000/svg">
<path opacity="0.25" fill-rule="evenodd" clip-rule="evenodd" d="M69.2803 4399.25C43.4179 4414.36 20.5159 4433.71 2.77854 4457.85C-91.8209 4586.6 -378.898 5026.55 -3.23369 5171.76C256.766 5272.26 1094.32 5390.95 1478.27 5117.76C1570.21 5052.34 1492.97 4601.84 1440.18 4345.03C1418.22 4238.14 1327.51 4160.64 1218.76 4151.62L662.776 4105.5C610.963 4101.2 559.084 4112.97 514.197 4139.2L69.2803 4399.25Z" fill="url(#paint0_linear_523_1723)"/>
<mask id="mask0_523_1723" style="mask-type:luminance" maskUnits="userSpaceOnUse" x="-192" y="4104" width="1713" height="1182">
<path fill-rule="evenodd" clip-rule="evenodd" d="M69.2804 4399.25C43.4179 4414.36 20.516 4433.71 2.77863 4457.85C-91.8208 4586.6 -378.898 5026.55 -3.23363 5171.76C256.766 5272.26 1094.32 5390.95 1478.27 5117.76C1570.21 5052.34 1492.97 4601.84 1440.18 4345.03C1418.22 4238.14 1327.51 4160.64 1218.76 4151.62L662.776 4105.5C610.963 4101.2 559.084 4112.97 514.197 4139.2L69.2804 4399.25Z" fill="white"/>
</mask>
<g mask="url(#mask0_523_1723)">
</g>
<path opacity="0.249674" fill-rule="evenodd" clip-rule="evenodd" d="M159.977 792.483C66.546 778.452 -11.1909 713.954 -37.6789 623.264C-136.21 285.912 -330.851 -517.509 50.3419 -517.532C363.193 -517.55 1053.09 -209.824 1499.54 6.56591C1679.46 93.7703 1683.59 343.284 1509.45 441.512L810.126 835.975C761.003 863.684 704.03 874.184 648.256 865.809L159.977 792.483Z" fill="url(#paint1_linear_523_1723)"/>
<defs>
<linearGradient id="paint0_linear_523_1723" x1="-531.01" y1="4783.95" x2="-59.5719" y2="3350.51" gradientUnits="userSpaceOnUse">
<stop stop-color="#6A1B9A"/>
<stop offset="1" stop-color="#FF6F00"/>
</linearGradient>
<linearGradient id="paint1_linear_523_1723" x1="-789.776" y1="421.091" x2="233.034" y2="1959.72" gradientUnits="userSpaceOnUse">
<stop stop-color="#6A1B9A"/>
<stop offset="1" stop-color="#FF6F00"/>
</linearGradient>
</defs>
</svg>
